# xmcd CD database file
#
# Track frame offsets:
#	150
#	33522
#	60530
#	85490
#	135160
#
# Disc length: 2241 seconds
#
# Revision: 2
# Processed by: cddbd v1.5.1PL2 Copyright (c) Steve Scherf et al.
# Submitted via: CDex 1.51
#
DISCID=3808bf05
DTITLE=Lee Morgan - The Gigolo
DYEAR=1965
DGENRE=Jazz
TTITLE0=Yes I Can, No You Can't
TTITLE1=Trapped
TTITLE2=Speed Ball
TTITLE3=The Gigolo
TTITLE4=You Go To My Head
EXTD=YEAR: 1965
EXTT0=
EXTT1=
EXTT2=
EXTT3=
EXTT4=
PLAYORDER=
